<svg width="19" height="19" viewBox="0 0 19 19" fill="none" xmlns="http://www.w3.org/2000/svg">
<path d="M15.8157 4.59961C13.3182 4.35211 10.8057 4.22461 8.30067 4.22461C6.81567 4.22461 5.33067 4.29961 3.84567 4.44961L2.31567 4.59961" stroke="#FF3B30" stroke-width="1.1" stroke-linecap="round" stroke-linejoin="round"/>
<path d="M6.44067 3.84225L6.60567 2.85975C6.72567 2.14725 6.81567 1.61475 8.08317 1.61475H10.0482C11.3157 1.61475 11.4132 2.17725 11.5257 2.86725L11.6907 3.84225" stroke="#FF3B30" stroke-width="1.1" stroke-linecap="round" stroke-linejoin="round"/>
<path d="M14.2032 6.96973L13.7157 14.5222C13.6332 15.6997 13.5657 16.6147 11.4732 16.6147H6.65822C4.56572 16.6147 4.49822 15.6997 4.41572 14.5222L3.92822 6.96973" stroke="#FF3B30" stroke-width="1.1" stroke-linecap="round" stroke-linejoin="round"/>
<path d="M7.81323 12.4897H10.3107" stroke="#FF3B30" stroke-width="1.1" stroke-linecap="round" stroke-linejoin="round"/>
<path d="M7.19067 9.48975H10.9407" stroke="#FF3B30" stroke-width="1.1" stroke-linecap="round" stroke-linejoin="round"/>
</svg>
